:SAMPLES-PER-SECOND 30
:FULLY-SPECIFIED
:DEGREES
47
root  -43.1712 40.2206 -5.29675 -46.7418 88.2886 -45.217
RightUpLeg  -3.26219 -11.4423 0.274237
RightLeg  20.3237 -2.95149 1.6772
RightFoot  -14.4413 -0.142488 -1.68351
RightToes  0.000482159 0.542163 -0.142577
Spine  11.5656 -0.601043 8.25917
Spine1  5.46934 0.309906 0.839576
HEad  2.00391 4.97583 -5.04489
LeftShoulder1  6.89366 -10.8343 -41.7128
LeftArm  -6.46795 12.5652 -32.9219
LeftForeArm  37.6983 -38.4744 -6.57412
LeftHand  -0.25398 0.0180481 5.50724
RightShoulder  4.15396 7.31814 32.4416
RightArm  -0.158012 -4.6533 39.1062
RightForeArm  -0.139532 36.3347 8.26628
RightHand  -2.27042 5.68322 -23.8523
LeftUpLeg  -21.8796 5.88988 1.49131
LeftLeg  49.8409 3.62268 5.0177
LeftFoot  0.312455 0.338171 -3.35259
LeftToes  1.06246e-005 4.65855e-005 -8.18503e-006
48
root  -41.7909 40.2361 -5.2779 -39.0294 88.6735 -37.6066
RightUpLeg  -0.0165976 -10.806 -0.978426
RightLeg  18.5277 -3.39005 2.48352
RightFoot  -15.6407 -0.138672 -0.871016
RightToes  0.000482159 0.542163 -0.142577
Spine  11.0205 -0.15847 8.16037
Spine1  5.61916 0.791629 -0.156204
HEad  2.48089 4.77522 -5.43406
LeftShoulder1  6.6896 -10.5015 -41.4178
LeftArm  -6.90795 13.1311 -32.3811
LeftForeArm  35.5345 -34.5494 -5.66189
LeftHand  -0.25398 0.0180481 5.50724
RightShoulder  4.12256 7.27088 32.3184
RightArm  0.299357 -3.43374 39.3042
RightForeArm  -0.120191 39.2383 9.15865
RightHand  -2.17832 5.33842 -23.6237
LeftUpLeg  -23.4083 7.79034 0.784836
LeftLeg  40.2784 3.99536 3.99882
LeftFoot  -0.734593 0.408445 -4.34164
LeftToes  1.06246e-005 4.65855e-005 -8.18503e-006
49
root  -40.4 40.1785 -5.2956 -47.5498 88.7432 -46.1883
RightUpLeg  3.23708 -10.2444 -1.58788
RightLeg  16.7592 -3.90925 3.11247
RightFoot  -16.5038 -0.141 -0.638787
RightToes  0.000482159 0.542163 -0.142577
Spine  10.6035 0.12148 8.63088
Spine1  5.91688 1.21768 -1.34631
HEad  2.72769 4.61233 -5.91075
LeftShoulder1  6.66144 -10.4545 -41.3785
LeftArm  -7.51241 13.7559 -31.6757
LeftForeArm  32.9806 -29.8842 -4.67644
LeftHand  -0.25398 0.0180481 5.50724
RightShoulder  4.15044 7.32681 32.3783
RightArm  0.768555 -2.21799 39.2478
RightForeArm  0.777235 41.2924 9.78602
RightHand  -2.1801 5.38495 -23.544
LeftUpLeg  -23.6996 10.994 -0.189439
LeftLeg  28.3097 2.59671 2.17055
LeftFoot  -0.639643 0.400414 -4.23602
LeftToes  1.06246e-005 4.65855e-005 -8.18503e-006
50
root  -38.9953 40.1178 -5.33116 -44.3516 88.7664 -42.904
RightUpLeg  6.80367 -9.87987 -2.3212
RightLeg  14.581 -4.07157 3.52794
RightFoot  -17.0533 -0.160899 -0.904303
RightToes  0.000482159 0.542163 -0.142577
Spine  10.3314 0.321531 8.45477
Spine1  6.70772 1.61658 -2.48789
HEad  2.60036 4.73759 -6.28152
LeftShoulder1  6.71777 -10.5091 -41.5809
LeftArm  -8.15334 14.7188 -30.8556
LeftForeArm  30.7789 -25.2665 -3.80347
LeftHand  -0.25398 0.0180481 5.50724
RightShoulder  4.1915 7.43452 32.3768
RightArm  1.54591 -0.80094 39.3397
RightForeArm  1.86232 41.9961 9.96329
RightHand  -2.28573 5.75274 -23.8654
LeftUpLeg  -22.548 12.6487 -0.709575
LeftLeg  14.5726 2.17717 -0.418072
LeftFoot  -0.371779 0.389312 -4.02677
LeftToes  1.06246e-005 4.65855e-005 -8.18503e-006
51
root  -37.5164 39.9406 -5.39921 -26.4587 88.7268 -24.772
RightUpLeg  10.2306 -10.0658 -3.51292
RightLeg  13.3316 -2.98596 3.76009
RightFoot  -18.246 -0.125162 -0.079213
RightToes  0.000482159 0.542163 -0.142577
Spine  10.1818 0.496667 7.6498
Spine1  7.56768 1.99883 -3.2934
HEad  2.40767 5.0533 -6.3128
LeftShoulder1  6.70954 -10.4763 -41.6304
LeftArm  -8.77902 16.1696 -30.2309
LeftForeArm  29.4175 -20.8267 -3.4295
LeftHand  -0.25398 0.0180481 5.50724
RightShoulder  4.23258 7.54787 32.3556
RightArm  2.49577 0.434581 39.7336
RightForeArm  2.93171 41.3066 9.65729
RightHand  -2.32102 5.90219 -23.9134
LeftUpLeg  -20.0241 5.51882 2.64982
LeftLeg  1.50564 12.5006 -4.65005
LeftFoot  -0.852379 0.447572 -4.84601
LeftToes  1.06246e-005 4.65855e-005 -8.18503e-006
52
root  -35.9114 39.601 -5.54471 -20.1307 88.5466 -18.1058
RightUpLeg  13.2528 -10.9246 -4.91322
RightLeg  13.7857 -0.824037 3.82618
RightFoot  -19.9294 0.0213759 2.08571
RightToes  0.000482159 0.542163 -0.142577
Spine  9.90702 0.613649 7.22086
Spine1  8.10654 2.27957 -3.97617
HEad  2.38239 5.26876 -5.87495
LeftShoulder1  6.61551 -10.3822 -41.301
LeftArm  -10.1496 17.9776 -29.8459
LeftForeArm  29.7697 -16.5116 -3.95057
LeftHand  -0.25398 0.0180481 5.50724
RightShoulder  4.28184 7.65918 32.4153
RightArm  3.20511 1.06886 40.404
RightForeArm  3.87342 39.377 8.95976
RightHand  -2.20274 5.63754 -23.2602
LeftUpLeg  -19.0454 3.42539 3.20878
LeftLeg  -5.52108 20.0268 -7.25512
LeftFoot  -2.73876 0.425974 -5.38592
LeftToes  1.06246e-005 4.65855e-005 -8.18503e-006
53
root  -34.2142 39.2652 -5.76558 -16.2377 88.791 -14.0284
RightUpLeg  15.9947 -12.2544 -6.61876
RightLeg  14.8748 1.31524 3.58481
RightFoot  -20.686 0.195683 4.12279
RightToes  0.000482159 0.542163 -0.142577
Spine  9.44624 0.547129 6.84331
Spine1  8.74804 2.48729 -4.80462
HEad  2.48362 5.19226 -5.09119
LeftShoulder1  6.5256 -10.3214 -40.8876
LeftArm  -11.0956 19.9481 -29.5017
LeftForeArm  30.9147 -12.8658 -4.45917
LeftHand  -0.25398 0.0180481 5.50724
RightShoulder  4.32099 7.72772 32.53
RightArm  3.49255 0.967267 41.2019
RightForeArm  4.09624 36.49 8.06118
RightHand  -2.06594 5.32375 -22.4847
LeftUpLeg  -19.4274 3.49851 2.23924
LeftLeg  -4.91116 25.9524 -7.98184
LeftFoot  -3.87832 0.256779 -3.6259
LeftToes  1.06246e-005 4.65855e-005 -8.18503e-006
54
root  -32.4053 38.9589 -6.03655 12.8568 89.018 15.2476
RightUpLeg  18.6251 -13.6948 -9.06324
RightLeg  16.4312 3.77044 3.09845
RightFoot  -20.5689 0.372427 6.30197
RightToes  0.000482159 0.542163 -0.142577
Spine  8.86395 0.664032 5.68062
Spine1  9.41057 2.73893 -5.21548
HEad  2.76277 4.78498 -4.19487
LeftShoulder1  6.48124 -10.2549 -40.7987
LeftArm  -11.2925 22.1059 -28.9232
LeftForeArm  32.8924 -10.5351 -4.60649
LeftHand  -0.25398 0.0180481 5.50724
RightShoulder  4.35061 7.7269 32.7965
RightArm  3.5047 0.0276612 41.8135
RightForeArm  3.32638 32.9481 7.11646
RightHand  -2.00415 5.20572 -22.0688
LeftUpLeg  -20.3697 4.35855 0.253065
LeftLeg  0.850631 27.9753 -5.92811
LeftFoot  -1.69721 -0.0186815 0.223806
LeftToes  1.06246e-005 4.65855e-005 -8.18503e-006
